<svg width="11" height="28" viewBox="0 0 11 28" fill="none" xmlns="http://www.w3.org/2000/svg">
<path d="M5.588 22.6645C5.588 22.4618 5.53467 22.2832 5.428 22.1285C5.32133 21.9738 5.188 21.8192 5.028 21.6645C4.868 21.5098 4.708 21.3365 4.548 21.1445C4.388 20.9578 4.25467 20.7285 4.148 20.4565C4.04133 20.1898 3.988 19.8592 3.988 19.4645C3.988 19.0698 4.04133 18.7365 4.148 18.4645C4.25467 18.1978 4.388 17.9685 4.548 17.7765C4.708 17.5898 4.868 17.4192 5.028 17.2645C5.188 17.1098 5.32133 16.9552 5.428 16.8005C5.53467 16.6512 5.588 16.4725 5.588 16.2645C5.588 16.0565 5.53467 15.8752 5.428 15.7205C5.32133 15.5712 5.188 15.4218 5.028 15.2725C4.868 15.1232 4.708 14.9552 4.548 14.7685C4.388 14.5818 4.25467 14.3525 4.148 14.0805C4.04133 13.8085 3.988 13.4698 3.988 13.0645C3.988 12.6698 4.04133 12.3365 4.148 12.0645C4.25467 11.7978 4.388 11.5685 4.548 11.3765C4.708 11.1898 4.868 11.0192 5.028 10.8645C5.188 10.7098 5.32133 10.5552 5.428 10.4005C5.53467 10.2458 5.588 10.0672 5.588 9.8645C5.588 9.66183 5.53467 9.48317 5.428 9.3285C5.32133 9.17383 5.188 9.01917 5.028 8.8645C4.868 8.70983 4.708 8.53917 4.548 8.3525C4.388 8.1605 4.25467 7.93117 4.148 7.6645C4.04133 7.39783 3.988 7.0645 3.988 6.6645C3.988 6.26983 4.04133 5.93917 4.148 5.6725C4.25467 5.4005 4.388 5.17117 4.548 4.9845C4.708 4.7925 4.868 4.61917 5.028 4.4645C5.188 4.30983 5.32133 4.15783 5.428 4.0085C5.53467 3.85383 5.588 3.6725 5.588 3.4645C5.588 3.1925 5.46267 2.92583 5.212 2.6645C4.96133 2.39783 4.66267 2.1845 4.316 2.0245L4.98 0.6165C5.32133 0.7445 5.652 0.960499 5.972 1.2645C6.28667 1.5685 6.548 1.91517 6.756 2.3045C6.95867 2.69383 7.06 3.0805 7.06 3.4645C7.06 3.8645 7.00667 4.19783 6.9 4.4645C6.79333 4.73117 6.66 4.9605 6.5 5.1525C6.34 5.33917 6.18 5.50983 6.02 5.6645C5.86 5.81917 5.72667 5.97383 5.62 6.1285C5.51333 6.28317 5.46 6.46183 5.46 6.6645C5.46 6.86717 5.51867 7.0485 5.636 7.2085C5.748 7.36317 5.88933 7.51783 6.06 7.6725C6.22533 7.82183 6.39333 7.9925 6.564 8.1845C6.72933 8.37117 6.87067 8.6005 6.988 8.8725C7.1 9.13917 7.156 9.46983 7.156 9.8645C7.156 10.2645 7.10267 10.5952 6.996 10.8565C6.88933 11.1232 6.75867 11.3498 6.604 11.5365C6.444 11.7285 6.28667 11.8992 6.132 12.0485C5.972 12.2032 5.83867 12.3578 5.732 12.5125C5.62533 12.6725 5.572 12.8565 5.572 13.0645C5.572 13.2725 5.62267 13.4538 5.724 13.6085C5.82 13.7632 5.94267 13.9125 6.092 14.0565C6.24133 14.2058 6.39067 14.3738 6.54 14.5605C6.684 14.7472 6.80667 14.9765 6.908 15.2485C7.00933 15.5258 7.06 15.8645 7.06 16.2645C7.06 16.6645 7.00667 16.9978 6.9 17.2645C6.79333 17.5312 6.66 17.7578 6.5 17.9445C6.34 18.1365 6.18 18.3098 6.02 18.4645C5.86 18.6192 5.72667 18.7738 5.62 18.9285C5.51333 19.0832 5.46 19.2618 5.46 19.4645C5.46 19.6672 5.51867 19.8458 5.636 20.0005C5.748 20.1605 5.88933 20.3152 6.06 20.4645C6.22533 20.6192 6.39333 20.7898 6.564 20.9765C6.72933 21.1685 6.87067 21.3978 6.988 21.6645C7.1 21.9365 7.156 22.2698 7.156 22.6645C7.156 23.0698 7.11333 23.4005 7.028 23.6565C6.94267 23.9178 6.83867 24.1365 6.716 24.3125C6.588 24.4885 6.46267 24.6512 6.34 24.8005C6.212 24.9498 6.10533 25.1125 6.02 25.2885C5.92933 25.4645 5.88133 25.6885 5.876 25.9605H4.252C4.22533 25.5232 4.25467 25.1605 4.34 24.8725C4.42 24.5845 4.52933 24.3445 4.668 24.1525C4.80133 23.9605 4.94 23.7898 5.084 23.6405C5.228 23.4965 5.348 23.3498 5.444 23.2005C5.54 23.0512 5.588 22.8725 5.588 22.6645ZM0.427999 23.3445L1.492 22.0965L3.516 23.9445C3.79333 24.2005 4.028 24.4272 4.22 24.6245C4.40667 24.8272 4.57733 25.0538 4.732 25.3045H6.252C6.40667 25.0538 6.58 24.8272 6.772 24.6245C6.95867 24.4272 7.19067 24.2005 7.468 23.9445L9.492 22.0965L10.556 23.3445L5.492 27.8805L0.427999 23.3445Z" fill="white"/>
</svg>
