<svg width="43" height="8" viewBox="0 0 43 8" fill="none" xmlns="http://www.w3.org/2000/svg">
<path d="M3.28247 4.237C3.39647 4.237 3.49697 4.207 3.58397 4.147C3.67097 4.087 3.75797 4.012 3.84497 3.922C3.93197 3.832 4.02947 3.742 4.13747 3.652C4.24247 3.562 4.37147 3.487 4.52447 3.427C4.67447 3.367 4.86047 3.337 5.08247 3.337C5.30447 3.337 5.49197 3.367 5.64497 3.427C5.79497 3.487 5.92397 3.562 6.03197 3.652C6.13697 3.742 6.23297 3.832 6.31997 3.922C6.40697 4.012 6.49397 4.087 6.58097 4.147C6.66497 4.207 6.76547 4.237 6.88247 4.237C6.99947 4.237 7.10147 4.207 7.18847 4.147C7.27247 4.087 7.35647 4.012 7.44047 3.922C7.52447 3.832 7.61897 3.742 7.72397 3.652C7.82897 3.562 7.95797 3.487 8.11097 3.427C8.26397 3.367 8.45447 3.337 8.68247 3.337C8.90447 3.337 9.09197 3.367 9.24497 3.427C9.39497 3.487 9.52397 3.562 9.63197 3.652C9.73697 3.742 9.83297 3.832 9.91997 3.922C10.007 4.012 10.094 4.087 10.181 4.147C10.268 4.207 10.3685 4.237 10.4825 4.237C10.5965 4.237 10.697 4.207 10.784 4.147C10.871 4.087 10.958 4.012 11.045 3.922C11.132 3.832 11.228 3.742 11.333 3.652C11.441 3.562 11.57 3.487 11.72 3.427C11.87 3.367 12.0575 3.337 12.2825 3.337C12.5045 3.337 12.6905 3.367 12.8405 3.427C12.9935 3.487 13.1225 3.562 13.2275 3.652C13.3355 3.742 13.433 3.832 13.52 3.922C13.607 4.012 13.6925 4.087 13.7765 4.147C13.8635 4.207 13.9655 4.237 14.0825 4.237C14.2355 4.237 14.3855 4.1665 14.5325 4.0255C14.6825 3.8845 14.8025 3.7165 14.8925 3.5215L15.6845 3.895C15.6125 4.087 15.491 4.273 15.32 4.453C15.149 4.63 14.954 4.777 14.735 4.894C14.516 5.008 14.2985 5.065 14.0825 5.065C13.8575 5.065 13.67 5.035 13.52 4.975C13.37 4.915 13.241 4.84 13.133 4.75C13.028 4.66 12.932 4.57 12.845 4.48C12.758 4.39 12.671 4.315 12.584 4.255C12.497 4.195 12.3965 4.165 12.2825 4.165C12.1685 4.165 12.0665 4.198 11.9765 4.264C11.8895 4.327 11.8025 4.4065 11.7155 4.5025C11.6315 4.5955 11.5355 4.69 11.4275 4.786C11.3225 4.879 11.1935 4.9585 11.0405 5.0245C10.8905 5.0875 10.7045 5.119 10.4825 5.119C10.2575 5.119 10.0715 5.089 9.92447 5.029C9.77447 4.969 9.64697 4.8955 9.54197 4.8085C9.43397 4.7185 9.33797 4.63 9.25397 4.543C9.16697 4.453 9.07997 4.378 8.99297 4.318C8.90297 4.258 8.79947 4.228 8.68247 4.228C8.56547 4.228 8.46347 4.2565 8.37647 4.3135C8.28947 4.3675 8.20547 4.4365 8.12447 4.5205C8.04047 4.6045 7.94597 4.6885 7.84097 4.7725C7.73597 4.8535 7.60697 4.9225 7.45397 4.9795C7.29797 5.0365 7.10747 5.065 6.88247 5.065C6.65747 5.065 6.46997 5.035 6.31997 4.975C6.16997 4.915 6.04247 4.84 5.93747 4.75C5.82947 4.66 5.73197 4.57 5.64497 4.48C5.55797 4.39 5.47097 4.315 5.38397 4.255C5.29697 4.195 5.19647 4.165 5.08247 4.165C4.96847 4.165 4.86797 4.198 4.78097 4.264C4.69097 4.327 4.60397 4.4065 4.51997 4.5025C4.43297 4.5955 4.33697 4.69 4.23197 4.786C4.12397 4.879 3.99497 4.9585 3.84497 5.0245C3.69197 5.0875 3.50447 5.119 3.28247 5.119C3.05447 5.119 2.86847 5.095 2.72447 5.047C2.57747 4.999 2.45447 4.9405 2.35547 4.8715C2.25647 4.7995 2.16497 4.729 2.08097 4.66C1.99697 4.588 1.90547 4.528 1.80647 4.48C1.70747 4.429 1.58147 4.402 1.42847 4.399V3.4855C1.67447 3.4705 1.87847 3.487 2.04047 3.535C2.20247 3.58 2.33747 3.6415 2.44547 3.7195C2.55347 3.7945 2.64947 3.8725 2.73347 3.9535C2.81447 4.0345 2.89697 4.102 2.98097 4.156C3.06497 4.21 3.16547 4.237 3.28247 4.237ZM2.89997 1.3345L3.60197 1.933L2.56247 3.0715C2.41847 3.2275 2.29097 3.3595 2.17997 3.4675C2.06597 3.5725 1.93847 3.6685 1.79747 3.7555V4.6105C1.93847 4.6975 2.06597 4.795 2.17997 4.903C2.29097 5.008 2.41847 5.1385 2.56247 5.2945L3.60197 6.433L2.89997 7.0315L0.348468 4.183L2.89997 1.3345ZM25.2984 7V4.1785H23.2734V7H22.2294V0.789999H23.2734V3.319H25.2984V0.789999H26.3424V7H25.2984ZM29.6869 2.122C30.1519 2.122 30.5434 2.2255 30.8614 2.4325C31.1794 2.6395 31.4194 2.929 31.5814 3.301C31.7464 3.673 31.8289 4.111 31.8289 4.615C31.8289 5.116 31.7449 5.5555 31.5769 5.9335C31.4119 6.3085 31.1689 6.601 30.8479 6.811C30.5299 7.018 30.1414 7.1215 29.6824 7.1215C29.2234 7.1215 28.8334 7.021 28.5124 6.82C28.1944 6.616 27.9514 6.3265 27.7834 5.9515C27.6184 5.5765 27.5359 5.134 27.5359 4.624C27.5359 4.129 27.6184 3.694 27.7834 3.319C27.9514 2.944 28.1959 2.6515 28.5169 2.4415C28.8379 2.2285 29.2279 2.122 29.6869 2.122ZM29.6869 2.905C29.3239 2.905 29.0509 3.0445 28.8679 3.3235C28.6849 3.5995 28.5934 4.033 28.5934 4.624C28.5934 5.212 28.6834 5.6455 28.8634 5.9245C29.0464 6.2035 29.3194 6.343 29.6824 6.343C30.0454 6.343 30.3169 6.2035 30.4969 5.9245C30.6799 5.6455 30.7714 5.209 30.7714 4.615C30.7714 4.03 30.6814 3.5995 30.5014 3.3235C30.3214 3.0445 30.0499 2.905 29.6869 2.905ZM36.4559 2.122C36.6359 2.122 36.7979 2.161 36.9419 2.239C37.0859 2.317 37.1984 2.4535 37.2794 2.6485C37.3634 2.8435 37.4054 3.1165 37.4054 3.4675V7H36.5099V3.607C36.5099 3.358 36.4919 3.1795 36.4559 3.0715C36.4229 2.9635 36.3344 2.9095 36.1904 2.9095C36.0764 2.9095 35.9609 2.9455 35.8439 3.0175C35.7269 3.0865 35.6084 3.2065 35.4884 3.3775V7H34.6739V3.607C34.6739 3.358 34.6559 3.1795 34.6199 3.0715C34.5869 2.9635 34.4984 2.9095 34.3544 2.9095C34.2374 2.9095 34.1204 2.9455 34.0034 3.0175C33.8894 3.0865 33.7724 3.2065 33.6524 3.3775V7H32.7524V2.248H33.5129L33.5804 2.761C33.7154 2.572 33.8624 2.419 34.0214 2.302C34.1804 2.182 34.3724 2.122 34.5974 2.122C34.7774 2.122 34.9409 2.167 35.0879 2.257C35.2349 2.347 35.3429 2.5045 35.4119 2.7295C35.5439 2.5495 35.6939 2.404 35.8619 2.293C36.0299 2.179 36.2279 2.122 36.4559 2.122ZM39.4134 4.948C39.4344 5.272 39.5034 5.5375 39.6204 5.7445C39.7374 5.9485 39.8904 6.0985 40.0794 6.1945C40.2714 6.2905 40.4814 6.3385 40.7094 6.3385C40.9434 6.3385 41.1594 6.3025 41.3574 6.2305C41.5554 6.1585 41.7549 6.0565 41.9559 5.9245L42.3924 6.5275C42.1704 6.7075 41.9109 6.8515 41.6139 6.9595C41.3169 7.0675 40.9989 7.1215 40.6599 7.1215C40.1679 7.1215 39.7509 7.0165 39.4089 6.8065C39.0699 6.5965 38.8119 6.304 38.6349 5.929C38.4579 5.554 38.3694 5.1205 38.3694 4.6285C38.3694 4.1515 38.4564 3.7255 38.6304 3.3505C38.8044 2.9725 39.0534 2.674 39.3774 2.455C39.7014 2.233 40.0884 2.122 40.5384 2.122C40.9614 2.122 41.3244 2.218 41.6274 2.41C41.9334 2.602 42.1689 2.875 42.3339 3.229C42.5019 3.58 42.5859 4.003 42.5859 4.498C42.5859 4.579 42.5829 4.66 42.5769 4.741C42.5739 4.819 42.5694 4.888 42.5634 4.948H39.4134ZM40.5474 2.869C40.2324 2.869 39.9714 2.9815 39.7644 3.2065C39.5604 3.4315 39.4419 3.7825 39.4089 4.2595H41.6094C41.6004 3.8125 41.5044 3.469 41.3214 3.229C41.1414 2.989 40.8834 2.869 40.5474 2.869Z" fill="white"/>
</svg>
