<svg width="154" height="80" viewBox="0 0 154 80" fill="none" xmlns="http://www.w3.org/2000/svg">
    <g filter="url(#filter0_d_25_10176)">
    <path d="M20.0723 25.5496L41.2889 12.8384H134.588V40.6023L113.643 53.648H20.0723V25.5496Z" fill="url(#paint0_linear_25_10176)" shape-rendering="crispEdges"/>
    </g>
    <path d="M141.964 42.7787L141.819 42.8676L129.124 50.6732V51.808L117.374 59.0004H75.0186L77.751 56.9926H116.008L129.124 48.9652V49.9613L141.356 42.4398V26.3861H141.964V42.7787ZM44.4404 6.89294L45.4551 7.51697H87.5303V8.12439H46.4424L47.7041 8.90076L48.6182 9.46228H38.9268L27.5752 16.4418L27.4707 16.5062L27.3516 16.4799L25.8682 16.1537L13.3037 23.8793V52.4769H12.6963V23.5404L12.8408 23.4515L25.0137 15.9662L23.9443 15.7318L23.543 15.6439L23.6084 15.347L23.6738 15.0511L23.9541 15.1127L37.3223 6.89294L37.3945 6.84802H44.3672L44.4404 6.89294ZM134.316 15.514H88.9541L82.9424 13.1732H134.316V15.514Z" fill="#C778DD"/>
    <defs>
    <filter id="filter0_d_25_10176" x="0.651863" y="0.0937395" width="153.356" height="79.6504" filterUnits="userSpaceOnUse" color-interpolation-filters="sRGB">
    <feFlood flood-opacity="0" result="BackgroundImageFix"/>
    <feColorMatrix in="SourceAlpha" type="matrix" values="0 0 0 0 0 0 0 0 0 0 0 0 0 0 0 0 0 0 127 0" result="hardAlpha"/>
    <feOffset dy="6.67576"/>
    <feGaussianBlur stdDeviation="9.7102"/>
    <feComposite in2="hardAlpha" operator="out"/>
    <feColorMatrix type="matrix" values="0 0 0 0 0.780392 0 0 0 0 0.470588 0 0 0 0 0.866667 0 0 0 0.53 0"/>
    <feBlend mode="normal" in2="BackgroundImageFix" result="effect1_dropShadow_25_10176"/>
    <feBlend mode="normal" in="SourceGraphic" in2="effect1_dropShadow_25_10176" result="shape"/>
    </filter>
    <linearGradient id="paint0_linear_25_10176" x1="73.114" y1="22.3718" x2="73.8345" y2="53.6752" gradientUnits="userSpaceOnUse">
    <stop stop-color="#C778DD"/>
    <stop offset="1" stop-color="#F0BAFF" stop-opacity="0.85"/>
    </linearGradient>
    </defs>
</svg>
