<svg width="741" height="298" viewBox="0 0 741 298" fill="none" xmlns="http://www.w3.org/2000/svg">
<mask id="path-1-inside-1_80_25402" fill="white">
<path d="M740.946 122.724L513.637 298.001H228.393L0.15918 122.013L55.0537 0H685.732L740.946 122.724Z"/>
</mask>
<path d="M740.946 122.724L513.637 298.001H228.393L0.15918 122.013L55.0537 0H685.732L740.946 122.724Z" fill="#1C1D1E"/>
<path d="M740.946 122.724L742.778 125.099L744.654 123.653L743.682 121.493L740.946 122.724ZM513.637 298.001V301.001H514.659L515.469 300.377L513.637 298.001ZM228.393 298.001L226.561 300.377L227.37 301.001H228.393V298.001ZM0.15918 122.013L-2.57668 120.782L-3.54856 122.942L-1.67272 124.388L0.15918 122.013ZM55.0537 0V-3H53.1138L52.3179 -1.23089L55.0537 0ZM685.732 0L688.468 -1.23088L687.672 -3H685.732V0ZM740.946 122.724L739.114 120.348L511.805 295.625L513.637 298.001L515.469 300.377L742.778 125.099L740.946 122.724ZM513.637 298.001V295.001H228.393V298.001V301.001H513.637V298.001ZM228.393 298.001L230.224 295.625L1.99108 119.637L0.15918 122.013L-1.67272 124.388L226.561 300.377L228.393 298.001ZM0.15918 122.013L2.89504 123.244L57.7896 1.23089L55.0537 0L52.3179 -1.23089L-2.57668 120.782L0.15918 122.013ZM55.0537 0V3H685.732V0V-3H55.0537V0ZM685.732 0L682.997 1.23088L738.21 123.955L740.946 122.724L743.682 121.493L688.468 -1.23088L685.732 0Z" fill="#C778DD" mask="url(#path-1-inside-1_80_25402)"/>
</svg>
