<svg width="130" height="53" viewBox="0 0 130 53" fill="none" xmlns="http://www.w3.org/2000/svg">
<path d="M129.964 36.7787L129.819 36.8676L117.124 44.6732V45.808L105.374 53.0004H63.0186L65.751 50.9926H104.008L117.124 42.9652V43.9613L129.356 36.4398V20.3861H129.964V36.7787ZM122.588 34.6019L101.644 47.6478H8.07227V19.5492L29.2891 6.83826H122.588V34.6019ZM32.4404 0.892944L33.4551 1.51697H75.5303V2.12439H34.4424L35.7041 2.90076L36.6182 3.46228H26.9268L15.5752 10.4418L15.4707 10.5062L15.3516 10.4799L13.8682 10.1537L1.30371 17.8793V46.4769H0.696289V17.5404L0.84082 17.4515L13.0137 9.96619L11.9443 9.73181L11.543 9.64392L11.6084 9.34705L11.6738 9.05115L11.9541 9.11267L25.3223 0.892944L25.3945 0.848022H32.3672L32.4404 0.892944Z" fill="#C778DD"/>
</svg>
