<svg width="24" height="24" viewBox="0 0 24 24" fill="none" xmlns="http://www.w3.org/2000/svg">
<path d="M3.25 12C3.25 11.586 3.586 11.25 4 11.25H20C20.414 11.25 20.75 11.586 20.75 12C20.75 12.414 20.414 12.75 20 12.75H4C3.586 12.75 3.25 12.414 3.25 12ZM9.25 5C9.25 4.586 9.586 4.25 10 4.25H20C20.414 4.25 20.75 4.586 20.75 5C20.75 5.414 20.414 5.75 20 5.75H10C9.586 5.75 9.25 5.414 9.25 5ZM4 18.25H14C14.414 18.25 14.75 18.586 14.75 19C14.75 19.414 14.414 19.75 14 19.75H4C3.586 19.75 3.25 19.414 3.25 19C3.25 18.586 3.586 18.25 4 18.25Z" fill="white"/>
</svg>
