<svg width="30" height="30" viewBox="0 0 30 30" fill="none" xmlns="http://www.w3.org/2000/svg">
<path d="M26.1375 13.8999V8.4124C26.1375 7.3874 25.3625 6.2249 24.4 5.8374L17.4375 2.9874C15.875 2.3499 14.1125 2.3499 12.55 2.9874L5.58755 5.8374C4.63755 6.2249 3.86255 7.3874 3.86255 8.4124V13.8999C3.86255 20.0124 8.30005 25.7374 14.3625 27.4124C14.775 27.5249 15.225 27.5249 15.6375 27.4124C21.7 25.7374 26.1375 20.0124 26.1375 13.8999ZM15.9375 16.0874V19.3749C15.9375 19.8874 15.5125 20.3124 15 20.3124C14.4875 20.3124 14.0625 19.8874 14.0625 19.3749V16.0874C12.8 15.6874 11.875 14.5124 11.875 13.1249C11.875 11.3999 13.275 9.9999 15 9.9999C16.725 9.9999 18.125 11.3999 18.125 13.1249C18.125 14.5249 17.2 15.6874 15.9375 16.0874Z" fill="#C778DD"/>
</svg>
