<svg width="26" height="26" viewBox="0 0 26 26" fill="none" xmlns="http://www.w3.org/2000/svg">
<path d="M13 0.5C6.1 0.5 0.5 6.1 0.5 13C0.5 19.9 6.1 25.5 13 25.5C19.9 25.5 25.5 19.9 25.5 13C25.5 6.1 19.9 0.5 13 0.5ZM8.8125 16.4625C8.675 16.8375 8.3125 17.075 7.9375 17.075C7.825 17.075 7.725 17.0625 7.6125 17.0125C6.6 16.6375 5.75 15.9 5.2125 14.9375C3.9625 12.6875 4.7375 9.75 6.925 8.3875L9.85 6.575C10.925 5.9125 12.1875 5.7125 13.3875 6.025C14.5875 6.3375 15.6 7.125 16.2125 8.225C17.4625 10.475 16.6875 13.4125 14.5 14.775L14.175 15.0125C13.75 15.3125 13.1625 15.2125 12.8625 14.8C12.5625 14.375 12.6625 13.7875 13.075 13.4875L13.4625 13.2125C14.8625 12.3375 15.3375 10.525 14.575 9.1375C14.2125 8.4875 13.625 8.025 12.925 7.8375C12.225 7.65 11.4875 7.7625 10.85 8.1625L7.9 9.9875C6.55 10.825 6.075 12.6375 6.8375 14.0375C7.15 14.6 7.65 15.0375 8.25 15.2625C8.7375 15.4375 8.9875 15.975 8.8125 16.4625ZM19.15 17.5625L16.225 19.375C15.4875 19.8375 14.6625 20.0625 13.825 20.0625C13.45 20.0625 13.0625 20.0125 12.6875 19.9125C11.4875 19.6 10.475 18.8125 9.875 17.7125C8.625 15.4625 9.4 12.525 11.5875 11.1625L11.9125 10.925C12.3375 10.625 12.925 10.725 13.225 11.1375C13.525 11.5625 13.425 12.15 13.0125 12.45L12.625 12.725C11.225 13.6 10.75 15.4125 11.5125 16.8C11.875 17.45 12.4625 17.9125 13.1625 18.1C13.8625 18.2875 14.6 18.175 15.2375 17.775L18.1625 15.9625C19.5125 15.125 19.9875 13.3125 19.225 11.9125C18.9125 11.35 18.4125 10.9125 17.8125 10.6875C17.325 10.5125 17.075 9.975 17.2625 9.4875C17.4375 9 17.9875 8.75 18.4625 8.9375C19.475 9.3125 20.325 10.05 20.8625 11.0125C22.1 13.2625 21.3375 16.2 19.15 17.5625Z" fill="#C778DD"/>
</svg>
